# Blender 3.1.2
# www.blender.org
o Plane
v 2.740144 0.959900 -0.744310
v 2.740144 -0.364063 -0.648887
v 2.740144 0.959900 0.744310
v 2.740144 -0.364063 0.648887
v -1.883574 0.833199 -0.302120
v -1.883574 0.184536 -0.263388
v -1.883574 0.833199 0.302120
v -1.883574 0.184536 0.263388
v 0.188797 -0.622639 -0.871797
v -0.418634 1.000000 1.000000
v 0.188797 -0.622639 0.871797
v -0.418634 1.000000 -1.000000
v -1.883574 0.075098 0.000000
v 2.740144 0.959900 0.000000
v 2.740144 -0.528719 0.000000
v 0.188797 -0.843858 0.000000
v -0.418634 1.000000 0.000000
v 2.740144 0.410341 -0.879194
v -1.883574 0.583589 0.356871
v 2.740144 0.410341 0.879194
v -1.883574 0.583589 -0.356871
v -0.266518 0.261653 -1.181221
v -0.266518 0.261653 1.181221
v 2.740144 0.215591 0.000000
v -2.114824 0.595789 0.000000
v 0.317792 0.150268 2.749926
v 0.317792 0.419333 2.749926
v 0.317792 0.150268 -2.749926
v 0.317792 0.419333 -2.749926
v 1.958353 0.107609 3.403116
v 2.317792 0.469222 3.403116
v 1.958353 0.107609 -3.403116
v 2.317792 0.469222 -3.403116
v 1.211493 0.004912 -3.403116
v 1.211493 0.485018 -3.403116
v 1.211493 0.004912 3.403116
v 1.211493 0.485018 3.403116
v 1.211493 0.244965 3.567159
v 1.211493 0.244965 -3.567159
v 1.849949 -0.778780 1.061524
v 1.849949 1.000000 -1.217627
v 1.849949 -0.778780 -1.061524
v 1.849949 1.000000 1.217627
v 1.849949 1.000000 0.000000
v 1.849949 -1.000000 0.000000
v 1.849949 0.261653 1.438286
v 1.849949 0.261653 -1.438286
v -1.231763 0.887856 0.000000
v -1.883574 0.833199 0.000000
vn -0.1165 0.9931 -0.0166
vn -0.4322 0.1460 0.8899
vn 0.4727 -0.8596 0.1939
vn 1.0000 -0.0000 -0.0000
vn 0.4770 0.2339 -0.8472
vn -0.4322 0.1460 -0.8899
vn -0.4034 -0.8785 0.2559
vn -0.1042 0.2512 0.9623
vn -0.0000 1.0000 -0.0000
vn -0.4034 -0.8785 -0.2559
vn 0.4727 -0.8596 -0.1939
vn -0.8314 0.1191 0.5428
vn -0.1165 0.9931 0.0166
vn -0.8345 -0.1257 0.5365
vn -0.1242 -0.3592 0.9250
vn -0.4362 -0.4068 -0.8027
vn 0.5257 -0.2699 -0.8067
vn -0.9012 -0.4002 -0.1663
vn -0.4362 -0.4068 0.8027
vn -1.0000 -0.0000 -0.0000
vn 0.1421 -0.3385 -0.9302
vn 0.7092 -0.7050 -0.0000
vn -0.5708 -0.4633 0.6779
vn 0.1362 -0.9907 -0.0000
vn -0.0733 0.9973 -0.0000
vn 0.0143 0.9999 -0.0000
vn -0.1605 -0.9870 -0.0000
vn 0.1421 -0.3385 0.9302
vn -0.5708 -0.4633 -0.6779
vn -0.1242 -0.3592 -0.9250
vn 0.0081 0.5642 0.8256
vn -0.6297 0.2383 0.7394
vn -0.6297 0.2383 -0.7394
vn 0.0081 0.5642 -0.8256
vn 0.5257 -0.2699 0.8067
vn -0.1038 -0.9695 -0.2219
vn 0.0450 0.9990 -0.0000
vn 0.4770 0.2339 0.8472
vn -0.1042 0.2512 -0.9623
vn -0.1038 -0.9695 0.2219
vn -0.8314 0.1191 -0.5428
vn -0.8345 -0.1257 -0.5365
vn -0.9012 -0.4002 0.1663
vn -0.7163 0.6978 -0.0000
vn -0.0836 0.9965 -0.0000
vt 0.189158 0.962230
vt 0.193417 0.947401
vt 0.214196 0.945516
vt 0.181679 0.962922
vt 0.189330 0.970651
vt 0.201840 0.947401
vt 0.214501 0.945793
vt 0.206852 0.945516
vt 0.181829 0.970264
vt 0.194433 0.966798
vt 0.195919 0.921231
vt 0.212014 0.919952
vt 0.197953 0.965890
vt 0.213846 0.969406
vt 0.199338 0.921231
vt 0.209034 0.919952
vt 0.210207 0.969665
vt 0.198969 0.967984
vt 0.200488 0.954525
vt 0.215457 0.931011
vt 0.214501 0.960247
vt 0.203286 0.929549
vt 0.205434 0.958060
vt 0.205591 0.931011
vt 0.191970 0.929549
vt 0.191791 0.958907
vt 0.210524 0.919874
vt 0.199042 0.966758
vt 0.189244 0.966440
vt 0.197628 0.947401
vt 0.210524 0.945399
vt 0.180823 0.966612
vt 0.210524 0.930854
vt 0.197628 0.929549
vt 0.186033 0.961530
vt 0.212412 0.969300
vt 0.186237 0.971477
vt 0.211338 0.945516
vt 0.195653 0.966172
vt 0.195321 0.956418
vt 0.210257 0.959142
vt 0.185033 0.966526
vt 0.212644 0.971467
vt 0.196341 0.968461
vt 0.197628 0.919874
vt 0.220944 0.954057
vt 0.190739 0.923570
vt 0.201529 0.959025
vt 0.219449 0.954009
vt 0.179285 0.955617
vt 0.203046 0.958980
vt 0.190739 0.954689
vt 0.218025 0.929938
vt 0.179285 0.924498
vt 0.216530 0.929889
vt 0.181560 0.919874
vt 0.201127 0.949193
vt 0.179285 0.919874
vt 0.167966 0.959313
vt 0.203196 0.947401
vt 0.219449 0.921223
vt 0.181560 0.958385
vt 0.217776 0.919874
vt 0.179285 0.958385
vt 0.167966 0.920802
vt 0.185825 0.958385
vt 0.219321 0.923908
vt 0.216654 0.923821
vt 0.174218 0.920802
vt 0.185825 0.919874
vt 0.200488 0.952808
vt 0.174218 0.959313
vt 0.203196 0.952728
vt 0.201768 0.952282
vt 0.217901 0.923145
vt 0.174269 0.919874
vt 0.204518 0.949530
vt 0.179531 0.972646
vt 0.204518 0.940225
vt 0.189330 0.959547
vt 0.190739 0.942376
vt 0.190739 0.949693
vt 0.179285 0.960636
vt 0.200488 0.947401
vt 0.216530 0.940225
vt 0.204518 0.942376
vt 0.214472 0.948673
vt 0.197628 0.942376
vt 0.210524 0.940067
vt 0.185460 0.974657
vt 0.210204 0.948184
vt 0.185128 0.958385
vt 0.194235 0.947608
vt 0.197628 0.924928
vt 0.197628 0.921231
s 0
f 17/34/1 48/94/1 7/15/1 10/22/1
f 23/41/2 10/21/2 7/14/2 19/36/2
f 45/89/3 15/31/3 4/8/3 40/79/3
f 24/42/4 14/29/4 3/5/4 20/37/4
f 47/92/5 41/80/5 1/1/5 18/35/5
f 21/39/6 5/10/6 12/26/6 22/40/6
f 13/27/7 16/33/7 11/24/7 8/16/7
f 46/91/8 43/87/8 10/21/8 23/41/8
f 44/88/9 17/34/9 10/22/9 43/86/9
f 41/81/9 12/25/9 17/34/9 44/88/9
f 6/12/10 9/20/10 16/33/10 13/27/10
f 18/35/4 1/1/4 14/29/4 24/42/4
f 42/85/11 2/3/11 15/31/11 45/89/11
f 19/36/12 7/14/12 25/43/12
f 12/25/13 5/11/13 48/94/13 17/34/13
f 8/17/14 19/36/14 25/43/14
f 2/4/4 18/35/4 24/42/4 15/32/4
f 40/77/15 46/91/15 23/41/15 11/23/15
f 6/13/16 21/39/16 22/40/16 9/19/16
f 42/83/17 47/92/17 18/35/17 2/4/17
f 15/32/4 24/42/4 20/37/4 4/9/4
f 13/28/18 25/44/18 6/13/18
f 11/23/19 23/41/19 19/36/19 8/17/19
f 26/46/20 27/49/20 29/55/20 28/53/20
f 34/67/21 39/75/21 33/63/21 32/61/21
f 32/62/22 33/64/22 31/58/22 30/56/22
f 36/71/23 38/74/23 26/48/23
f 34/66/24 32/62/24 30/56/24 36/70/24
f 35/69/25 29/54/25 27/50/25 37/72/25
f 33/65/26 35/69/26 37/72/26 31/59/26
f 28/52/27 34/66/27 36/70/27 26/47/27
f 30/57/28 31/60/28 38/74/28 36/71/28
f 28/53/29 39/75/29 34/67/29
f 9/19/30 22/40/30 47/93/30 42/84/30
f 38/74/31 31/60/31 37/73/31
f 26/48/32 38/74/32 37/73/32 27/51/32
f 39/75/33 28/53/33 29/55/33 35/68/33
f 33/65/34 39/76/34 35/69/34
f 4/9/35 20/37/35 46/90/35 40/78/35
f 9/20/36 42/85/36 45/89/36 16/33/36
f 1/2/37 41/81/37 44/88/37 14/30/37
f 14/30/37 44/88/37 43/86/37 3/6/37
f 20/38/38 3/7/38 43/87/38 46/91/38
f 22/40/39 12/26/39 41/82/39 47/93/39
f 16/33/40 45/89/40 40/79/40 11/24/40
f 5/10/41 21/39/41 25/44/41
f 6/13/42 25/44/42 21/39/42
f 25/44/43 13/28/43 8/18/43
f 25/45/44 49/95/44 5/11/44
f 49/95/45 7/15/45 48/94/45
f 48/94/45 5/11/45 49/95/45
f 7/15/44 49/95/44 25/45/44
